<svg xmlns="http://www.w3.org/2000/svg" viewBox="0 0 136.75 267.94"><defs><style>.cls-1{fill:#ea4b4b;}.cls-2{fill:#ffc200;}</style></defs><g id="Layer_2" data-name="Layer 2"><g id="Layer_1-2" data-name="Layer 1"><path class="cls-1" d="M136.5,102.62c-11.15-6.78-23.48-11.42-36.38-11-18.15.6-36.7,14.44-37,32.51-.24,14.54,10.63,29.25,4.88,42.61-8.45,19.61-42.89,14.86-51.94,34.2-5.88,12.57,3,26.8,4.18,40.62a37,37,0,0,1-8.42,26.37H136.5Z"/><path class="cls-2" d="M136.75,222.41V0H12.29a44.5,44.5,0,0,1-.74,9.71C9.43,20.72,3.62,30,1.2,40.92c-2.91,13.08-.42,28,6.42,38.3S25.43,95.06,35.87,93.38c12.44-2,25.77-13.08,36.37-4.42,8.08,6.6,9.22,22.12,5,33.2S64.87,140.83,57,147.78s-16.18,14.07-21,24.71c-9.08,19.86-1.56,49.1,14.92,58,16.75,9,35.42-1.9,53.19-6.59A77.38,77.38,0,0,1,136.75,222.41Z"/></g></g></svg>