<svg xmlns="http://www.w3.org/2000/svg" viewBox="0 0 1449.03 703.14"><defs><style>.cls-1{fill:#ffb24d;}.cls-2{fill:#fff;}.cls-3{fill:#15191e;}</style></defs><g id="Layer_2" data-name="Layer 2"><g id="Layer_1-2" data-name="Layer 1"><path class="cls-1" d="M1.2,0V221.63c2.86-1,5.72-2,8.61-3C71.22,198,141,193.47,200.37,219c33.21,14.25,64.08,37.84,100.49,38.24,54.5.61,92.25-48.9,135.48-80.59,74.45-54.59,186.31-56.85,263.12-5.32,33.4,22.42,59.85,53.27,93.36,75.52,68.34,45.37,161.4,49.45,238.82,20.27s139.73-88.37,181.88-156.87c21.39-34.77,38-71.88,51.12-110.2Z"/><path class="cls-2" d="M1448.19,0H811.06c-9,29.12-18.78,68.71-18.82,90.29,0,28.08,11.88,57.91,36.48,71.57C863.1,181,906.81,162,936,135.64s52.19-60.39,86.7-79.25S1110.24,42.88,1124,79.63c18.51,49.31-47.26,93.39-47.09,146.05.16,51.1,59.54,79.61,110.19,87.42s109.28,10.95,140.24,51.67c24.25,31.92,22.25,76.22,37.15,113.4,14.44,36,46.75,63,83.66,74.8Z"/><polygon class="cls-3" points="266 275.39 250.5 294.75 236.52 277.3 222.54 294.75 208.57 277.3 194.6 294.75 180.63 277.3 166.66 294.75 152.69 277.3 138.72 294.75 124.75 277.3 110.78 294.75 95.29 275.39 98.34 272.94 110.78 288.5 124.75 271.04 138.72 288.5 152.69 271.04 166.66 288.5 180.63 271.04 194.6 288.5 208.57 271.04 222.54 288.5 236.52 271.04 250.5 288.5 262.95 272.94 266 275.39"/><path class="cls-3" d="M625.29,93.64a57.64,57.64,0,0,1-81.51,81.51l14.63-14.64a36.94,36.94,0,0,0,52.24-52.24Z"/><polygon class="cls-3" points="767.66 507.07 746.99 489.37 747.03 524.73 767.66 507.07"/><polygon class="cls-3" points="746.99 489.37 767.62 471.71 746.95 454.02 746.99 489.37"/><path class="cls-3" d="M1116.3,357.11a57.64,57.64,0,1,1,81.51-81.51l-14.63,14.63a36.94,36.94,0,1,0-52.24,52.25Z"/><polygon class="cls-3" points="1116.29 594.56 1100.78 613.93 1086.8 596.47 1072.83 613.93 1058.85 596.47 1044.88 613.93 1030.91 596.47 1016.94 613.93 1002.98 596.47 989.01 613.93 975.04 596.47 961.07 613.93 945.57 594.56 948.63 592.12 961.07 607.67 975.04 590.21 989.01 607.67 1002.98 590.21 1016.94 607.67 1030.91 590.21 1044.88 607.67 1058.85 590.21 1072.83 607.67 1086.8 590.21 1100.78 607.67 1113.23 592.12 1116.29 594.56"/><polygon class="cls-3" points="609.27 593.9 593.76 613.27 579.78 595.81 565.81 613.27 551.83 595.81 537.86 613.27 523.89 595.81 509.93 613.27 495.96 595.81 481.99 613.27 468.02 595.81 454.05 613.27 438.56 593.9 441.61 591.46 454.05 607.01 468.02 589.55 481.99 607.01 495.96 589.55 509.93 607.01 523.89 589.55 537.86 607.01 551.83 589.55 565.81 607.01 579.78 589.55 593.76 607.01 606.22 591.46 609.27 593.9"/><polygon class="cls-3" points="523.91 544.81 508.41 564.17 494.42 546.71 480.45 564.17 466.48 546.71 452.5 564.17 438.54 546.72 424.57 564.17 410.6 546.72 396.63 564.17 382.66 546.72 368.69 564.17 353.2 544.81 356.25 542.36 368.69 557.91 382.66 540.46 396.63 557.91 410.6 540.46 424.57 557.91 438.54 540.46 452.5 557.91 466.48 540.46 480.45 557.92 494.42 540.46 508.41 557.92 520.86 542.36 523.91 544.81"/><polygon class="cls-3" points="1273.79 685.48 1253.12 667.79 1253.16 703.14 1273.79 685.48"/><polygon class="cls-3" points="1253.12 667.79 1273.75 650.13 1253.08 632.44 1253.12 667.79"/><path class="cls-2" d="M42.18,45.44,68.84,72c3.54,3.53,9-1.94,5.5-5.47L47.68,40c-3.54-3.53-9,1.94-5.5,5.47Z"/><path class="cls-2" d="M46.28,103.64l19.48,19.41c3.55,3.52,9-2,5.5-5.48L51.78,98.17c-3.54-3.53-9,2-5.5,5.47Z"/><path class="cls-2" d="M105.75,68.93l22.56,22.46c3.54,3.53,9-1.94,5.49-5.47L111.25,63.45c-3.54-3.53-9,2-5.5,5.48Z"/><path class="cls-2" d="M75,11.75,93.45,30.13c3.54,3.52,9-1.95,5.49-5.48L80.49,6.27c-3.54-3.53-9,2-5.5,5.48Z"/><path class="cls-2" d="M0,62.66,21.68,84.24c3.54,3.53,9-1.94,5.49-5.47L.52,52.22A4.79,4.79,0,0,0,0,51.8Z"/><path class="cls-2" d="M142.66,24l23.58,23.48c3.55,3.53,9-1.94,5.5-5.47L148.16,18.52c-3.54-3.52-9,1.95-5.5,5.48Z"/><path class="cls-2" d="M108.83,123.05l26.65,26.54c3.55,3.53,9.05-1.94,5.5-5.47l-26.66-26.55c-3.54-3.53-9,2-5.49,5.48Z"/><path class="cls-2" d="M19.63,136.32l21.53,21.44c3.54,3.53,9-1.94,5.49-5.47L25.12,130.84c-3.54-3.52-9,1.95-5.49,5.48Z"/><path class="cls-2" d="M168.29,85.27l22.56,22.46c3.54,3.53,9-2,5.5-5.48L173.79,79.79c-3.54-3.53-9,1.95-5.5,5.48Z"/><path class="cls-2" d="M172.39,138.36l20.51,20.42c3.54,3.53,9-1.94,5.5-5.47l-20.51-20.42c-3.54-3.53-9,1.94-5.5,5.47Z"/><path class="cls-2" d="M211.36,67.91l28.7,28.59c3.55,3.53,9.05-2,5.5-5.48L216.85,62.43c-3.54-3.53-9,1.95-5.49,5.48Z"/><path class="cls-2" d="M196,0a3.5,3.5,0,0,0,1,3.58L217.51,24c3.54,3.53,9-1.95,5.5-5.48L204.41,0Z"/><path class="cls-2" d="M231.86,137.34l27.68,27.57c3.55,3.53,9-1.94,5.5-5.47l-27.68-27.57c-3.54-3.53-9,1.94-5.5,5.47Z"/><path class="cls-2" d="M254.42,49.53,277,72c3.54,3.53,9-1.94,5.49-5.47L259.92,44.05c-3.55-3.53-9.05,2-5.5,5.48Z"/><path class="cls-2" d="M274.41,0l34.35,34.21c3.54,3.53,9-2,5.5-5.48L285.4,0Z"/><path class="cls-2" d="M283.13,117.94l20.5,20.42c3.55,3.53,9-1.94,5.5-5.47l-20.51-20.42c-3.54-3.53-9,1.94-5.49,5.47Z"/><path class="cls-2" d="M329.27,87.31l19.48,19.4c3.54,3.53,9-1.95,5.49-5.48l-19.48-19.4c-3.54-3.53-9,2-5.49,5.48Z"/><path class="cls-2" d="M363,43.53,390.74,71c3.55,3.51,9.05-2,5.49-5.48L368.47,38.05c-3.55-3.52-9.05,2-5.5,5.48Z"/><path class="cls-2" d="M385.14,0l16.92,16.85c3.54,3.53,9-1.94,5.5-5.47L396.14,0Z"/><path class="cls-2" d="M440,54.63l24.6,24.51c3.55,3.53,9-2,5.5-5.48l-24.6-24.5c-3.55-3.53-9.05,1.94-5.5,5.47Z"/><path class="cls-2" d="M453.84,0l22,22c3.55,3.53,9-1.95,5.5-5.48L464.83,0Z"/><path class="cls-2" d="M1.31,0,14.36,12.9c3.56,3.52,9.06-2,5.5-5.47L12.35,0Z"/><path class="cls-3" d="M1236.88,22.77l24.41,24.42c1.92,1.91,4.9-1.06,3-3l-24.42-24.42c-1.92-1.91-4.89,1.06-3,3Z"/><path class="cls-3" d="M1256.85,81.59l18.87,18.87c1.92,1.92,4.89-1.06,3-3q-9.42-9.44-18.86-18.86c-1.92-1.92-4.9,1-3,3Z"/><path class="cls-3" d="M1282.38,71.6l18.86,18.87c1.92,1.92,4.9-1.06,3-3l-18.87-18.86c-1.91-1.92-4.89,1.05-3,3Z"/><path class="cls-3" d="M1284.6,32.76l21.08,21.09c1.92,1.91,4.9-1.06,3-3l-21.09-21.09c-1.91-1.91-4.89,1.06-3,3Z"/><path class="cls-3" d="M1334.54,88.25,1349,102.68c1.91,1.91,4.89-1.06,3-3l-14.42-14.43c-1.92-1.91-4.9,1.06-3,3Z"/><path class="cls-3" d="M1333.43,46.08l16.65,16.64c1.91,1.92,4.89-1,3-3L1336.41,43.1c-1.92-1.92-4.9,1.06-3,3Z"/><path class="cls-3" d="M1325.66,118.21,1349,141.52c1.91,1.92,4.89-1.06,3-3l-23.3-23.31c-1.92-1.92-4.9,1.06-3,3Z"/><path class="cls-3" d="M1299,123.76l16.64,16.65c1.92,1.92,4.9-1.06,3-3L1302,120.79c-1.92-1.92-4.89,1.06-3,3Z"/><path class="cls-3" d="M1302.89,0l19.44,19.44c1.92,1.92,4.9-1.06,3-3L1308.84,0Z"/><path class="cls-3" d="M1258.5,0,1268,9.45a2.1,2.1,0,0,0,3-3L1264.45,0Z"/><path class="cls-3" d="M1371.16,121.54l16.65,16.65c1.92,1.92,4.89-1.06,3-3l-16.65-16.65c-1.92-1.92-4.89,1.06-3,3Z"/><path class="cls-3" d="M1378.93,82.7l22.2,22.2c1.92,1.91,4.89-1.06,3-3l-22.19-22.2c-1.92-1.91-4.9,1.06-3,3Z"/><path class="cls-3" d="M1374.49,40.53l16.65,16.64c1.92,1.92,4.89-1.05,3-3l-16.65-16.65c-1.92-1.92-4.89,1.06-3,3Z"/><path class="cls-3" d="M1347.28,0l17.22,17.22c1.92,1.92,4.9-1.06,3-3L1353.24,0Z"/><path class="cls-3" d="M1386.11,0a1.93,1.93,0,0,0,.59,1.68l22.2,22.2c1.92,1.92,4.89-1.06,3-3L1391,0Z"/><path class="cls-3" d="M1422.22,52.74l20,20c1.92,1.92,4.9-1.06,3-3l-20-20c-1.92-1.92-4.89,1.06-3,3Z"/><path class="cls-3" d="M1449,110.23,1433,94.15c-1.92-1.91-4.89,1.06-3,3l19,19.05Z"/><path class="cls-3" d="M1416.67,137.08l17.75,17.76c1.92,1.92,4.9-1.06,3-3l-17.76-17.75c-1.92-1.92-4.89,1-3,3Z"/><path class="cls-3" d="M1380,160.39l24.42,24.41c1.92,1.92,4.89-1.05,3-3L1383,157.41c-1.92-1.91-4.9,1.06-3,3Z"/><path class="cls-3" d="M1449,190.13l-19.4-19.4c-1.92-1.92-4.89,1.06-3,3L1449,196.08Z"/><path class="cls-3" d="M1350.08,168.16l20,20c1.92,1.92,4.9-1,3-3l-20-20c-1.91-1.92-4.89,1.06-3,3Z"/><path class="cls-3" d="M1449,17,1435.18,3.15c-1.92-1.92-4.89,1.05-3,3L1449,23Z"/><path class="cls-3" d="M1024.94,138.81c0-7.55-11.73-7.56-11.73,0s11.73,7.56,11.73,0Z"/><path class="cls-3" d="M747.88,55.92c0-13.42-20.86-13.44-20.86,0s20.86,13.44,20.86,0Z"/><path class="cls-3" d="M878.74,171.11c0-21.81-33.89-21.84-33.89,0s33.89,21.84,33.89,0Z"/><path class="cls-3" d="M1184.67,155.46c0-16.78-26.07-16.8-26.07,0s26.07,16.8,26.07,0Z"/><path class="cls-3" d="M1290.23,226.07c0-10.9-16.94-10.92-16.94,0s16.94,10.92,16.94,0Z"/><path class="cls-2" d="M153.39,588c0-16.77-26.06-16.8-26.06,0s26.06,16.8,26.06,0Z"/><path class="cls-2" d="M632.92,374.57c0-16.77-26.06-16.8-26.06,0s26.06,16.8,26.06,0Z"/><path class="cls-2" d="M1288.31,510.7c0-20.13-31.28-20.17-31.28,0s31.28,20.16,31.28,0Z"/><path class="cls-2" d="M816.76,634.44c0-18.45-28.68-18.48-28.68,0s28.68,18.49,28.68,0Z"/><path class="cls-2" d="M410.5,343.63c0-10.22-9-20-19.55-19.55s-19.55,8.59-19.55,19.55c0,10.23,9,20,19.55,19.55s19.55-8.59,19.55-19.55Z"/><path class="cls-2" d="M318.34,631.35c0-10.06-15.64-10.08-15.64,0s15.64,10.08,15.64,0Z"/><path class="cls-2" d="M809.59,349.82c0-9.22-14.34-9.24-14.34,0s14.34,9.24,14.34,0Z"/></g></g></svg>