<svg xmlns="http://www.w3.org/2000/svg" viewBox="0 0 3271.7 855.73"><defs><style>.cls-1{fill:#ea4b4b;}.cls-2{fill:#ffc200;}.cls-3{fill:#fff;}.cls-4{fill:#141b42;}</style></defs><g id="Layer_2" data-name="Layer 2"><g id="Layer_1-2" data-name="Layer 1"><path class="cls-1" d="M2140.28,472.93c-138.41,24-242.84,90.18-356.61,143.27s-264.68,96-398.5,63.89c-156.36-37.47-220.42-161-379.1-194.81-116.42-24.78-244.43,7.62-349.06,47s-206.48,87.83-328.65,98.8c-118,10.61-235.11-17-328.36-63.28V855.23H2838.8c3.72-66.31-33-132.34-87.21-190.53C2691,599.63,2606.59,541.24,2499,504S2259.54,452.22,2140.28,472.93Z"/><path class="cls-2" d="M3268.26,749.29V0H2857.87a153.12,153.12,0,0,1-2.46,32.71c-7,37.09-26.14,68.43-34.13,105.16-9.59,44.06-1.37,94.17,21.18,129s58.73,53.38,93.16,47.72c41-6.76,85-44.07,119.93-14.91,26.65,22.23,30.4,74.54,16.42,111.85s-40.74,62.91-66.79,86.33-53.33,47.41-69.37,83.24c-29.95,66.92-5.13,165.42,49.2,195.27,55.24,30.35,116.79-6.41,175.41-22.2A249.86,249.86,0,0,1,3268.26,749.29Z"/><path class="cls-3" d="M3271.7,56.26C3217.77,23.5,3158.15,1,3095.75,3.11,3008,6,2918.3,73,2916.85,160.35c-1.18,70.28,51.4,141.45,23.57,206.05-40.85,94.83-207.41,71.84-251.16,165.38-28.44,60.81,14.63,129.6,20.21,196.45,3.81,45.59-11.43,92.32-40.7,127.5H3271.7Z"/><path class="cls-3" d="M2806.58,6.94V346.35a1.61,1.61,0,0,0,3.21,0V6.94Z"/><path class="cls-3" d="M3240.05,6.94l-43.36,43.13-15.78,15.7c-1.47,1.46.81,3.73,2.28,2.27l55.72-55.43,5.7-5.67Z"/><path class="cls-3" d="M3178.76,6.94,3118.34,67c-1.47,1.46.82,3.73,2.29,2.27l62.7-62.37Z"/><polygon class="cls-3" points="2764.29 165.83 2748.4 153.1 2762.72 141.63 2748.4 130.17 2762.72 118.7 2748.4 107.24 2762.72 95.78 2748.4 84.31 2762.72 72.86 2748.4 61.39 2762.72 49.93 2748.4 38.47 2764.29 25.75 2766.29 28.26 2753.53 38.47 2767.86 49.93 2753.53 61.39 2767.86 72.86 2753.53 84.31 2767.86 95.78 2753.53 107.24 2767.86 118.7 2753.53 130.17 2767.86 141.63 2753.53 153.1 2766.3 163.32 2764.29 165.83"/><polygon class="cls-3" points="2890.61 513.02 2874.72 500.3 2889.04 488.83 2874.72 477.36 2889.04 465.89 2874.72 454.43 2889.04 442.97 2874.72 431.51 2889.04 420.05 2874.72 408.59 2889.04 397.12 2874.72 385.66 2890.61 372.95 2892.61 375.45 2879.85 385.66 2894.18 397.12 2879.85 408.59 2894.18 420.05 2879.85 431.51 2894.18 442.97 2879.85 454.43 2894.18 465.89 2879.85 477.36 2894.18 488.83 2879.85 500.3 2892.61 510.52 2890.61 513.02"/><polygon class="cls-4" points="2997.8 119.18 2980.84 104.67 2980.87 133.67 2997.8 119.18"/><polygon class="cls-4" points="2980.84 104.67 2997.76 90.17 2980.8 75.66 2980.84 104.67"/><polygon class="cls-3" points="2657.03 49.34 2640.07 34.83 2640.1 63.84 2657.03 49.34"/><polygon class="cls-3" points="2640.07 34.83 2657 20.34 2640.04 5.82 2640.07 34.83"/><polygon class="cls-3" points="2716.2 275.74 2700.31 263.02 2714.63 251.54 2700.31 240.08 2714.63 228.61 2700.31 217.15 2714.63 205.69 2700.31 194.23 2714.63 182.77 2700.31 171.31 2714.63 159.84 2700.31 148.38 2716.2 135.66 2718.2 138.17 2705.44 148.38 2719.77 159.84 2705.44 171.31 2719.77 182.77 2705.44 194.23 2719.77 205.69 2705.44 217.15 2719.77 228.61 2705.44 240.08 2719.77 251.54 2705.44 263.02 2718.2 273.24 2716.2 275.74"/><path class="cls-4" d="M3063.38,779.06c0-8.26-12.84-8.27-12.84,0s12.84,8.27,12.84,0Z"/><path class="cls-4" d="M3124.66,675.82c0-13.07-20.32-13.09-20.32,0s20.32,13.1,20.32,0Z"/><path class="cls-4" d="M3211.88,779.06c0-9.64-15-9.65-15,0s15,9.65,15,0Z"/><path class="cls-4" d="M3189.5,565.82c0-13.76-21.39-13.78-21.39,0s21.39,13.79,21.39,0Z"/><path class="cls-4" d="M3217.34,454.08c0-6.2-9.63-6.21-9.63,0s9.63,6.2,9.63,0Z"/><path class="cls-4" d="M3138,515.05c0-4.13-6.41-4.13-6.41,0s6.41,4.14,6.41,0Z"/><path class="cls-4" d="M3207.6,665.67c0-4.13-6.42-4.13-6.42,0s6.42,4.14,6.42,0Z"/><path class="cls-4" d="M3026.32,694.44c0-4.13-6.42-4.14-6.42,0s6.42,4.14,6.42,0Z"/><path class="cls-3" d="M2441.49,546.67c0-6.19-9.62-6.2-9.62,0s9.62,6.21,9.62,0Z"/><path class="cls-3" d="M2625.32,78.43a1.6,1.6,0,0,0-3.2,0,1.6,1.6,0,0,0,3.2,0Z"/><path class="cls-3" d="M2328.18,374.16c0-10.33-16-10.34-16,0s16,10.33,16,0Z"/></g></g></svg>