<svg xmlns="http://www.w3.org/2000/svg" xmlns:xlink="http://www.w3.org/1999/xlink" viewBox="0 0 142.93 70.87"><defs><style>.cls-1{fill:none;}.cls-2{fill:url(#_ÂÁ_Ï_ÌÌ_È_ËÂÌÚ_13);}.cls-3{fill:url(#_ÂÁ_Ï_ÌÌ_È_ËÂÌÚ_13-2);}.cls-4{fill:url(#_ÂÁ_Ï_ÌÌ_È_ËÂÌÚ_13-3);}.cls-5{fill:url(#_ÂÁ_Ï_ÌÌ_È_ËÂÌÚ_13-4);}.cls-6{fill:url(#_ÂÁ_Ï_ÌÌ_È_ËÂÌÚ_13-5);}.cls-7{fill:url(#_ÂÁ_Ï_ÌÌ_È_ËÂÌÚ_13-6);}.cls-8{fill:url(#_ÂÁ_Ï_ÌÌ_È_ËÂÌÚ_13-7);}.cls-9{fill:url(#_ÂÁ_Ï_ÌÌ_È_ËÂÌÚ_13-8);}.cls-10{fill:url(#_ÂÁ_Ï_ÌÌ_È_ËÂÌÚ_13-9);}.cls-11{fill:url(#_ÂÁ_Ï_ÌÌ_È_ËÂÌÚ_13-10);}.cls-12{fill:url(#_ÂÁ_Ï_ÌÌ_È_ËÂÌÚ_13-11);}.cls-13{fill:url(#_ÂÁ_Ï_ÌÌ_È_ËÂÌÚ_13-12);}.cls-14{fill:url(#_ÂÁ_Ï_ÌÌ_È_ËÂÌÚ_13-13);}.cls-15{fill:url(#_ÂÁ_Ï_ÌÌ_È_ËÂÌÚ_13-14);}.cls-16{fill:url(#_ÂÁ_Ï_ÌÌ_È_ËÂÌÚ_13-15);}.cls-17{fill:url(#_ÂÁ_Ï_ÌÌ_È_ËÂÌÚ_13-16);}.cls-18{fill:url(#_ÂÁ_Ï_ÌÌ_È_ËÂÌÚ_13-17);}.cls-19{clip-path:url(#clip-path);}.cls-20{fill:url(#linear-gradient);}.cls-21{fill:url(#linear-gradient-2);}.cls-22{clip-path:url(#clip-path-3);}.cls-23{fill:url(#linear-gradient-3);}.cls-24{clip-path:url(#clip-path-4);}.cls-25{fill:url(#linear-gradient-4);}.cls-26{clip-path:url(#clip-path-5);}.cls-27{fill:url(#linear-gradient-5);}.cls-28{fill:url(#linear-gradient-6);}</style><radialGradient id="_ÂÁ_Ï_ÌÌ_È_ËÂÌÚ_13" cx="6.99" cy="60.91" r="8.6" gradientUnits="userSpaceOnUse"><stop offset="0" stop-color="#fff"/><stop offset="0.49" stop-color="#fefefd"/><stop offset="0.66" stop-color="#fcfaf6"/><stop offset="0.79" stop-color="#f7f2eb"/><stop offset="0.89" stop-color="#f1e8da"/><stop offset="0.97" stop-color="#e9dbc4"/><stop offset="1" stop-color="#e6d5bb"/></radialGradient><radialGradient id="_ÂÁ_Ï_ÌÌ_È_ËÂÌÚ_13-2" cx="93.95" cy="60.62" r="9.02" xlink:href="#_ÂÁ_Ï_ÌÌ_È_ËÂÌÚ_13"/><radialGradient id="_ÂÁ_Ï_ÌÌ_È_ËÂÌÚ_13-3" cx="53.69" cy="60.62" r="8.22" xlink:href="#_ÂÁ_Ï_ÌÌ_È_ËÂÌÚ_13"/><radialGradient id="_ÂÁ_Ï_ÌÌ_È_ËÂÌÚ_13-4" cx="44.77" cy="65.54" r="5.13" xlink:href="#_ÂÁ_Ï_ÌÌ_È_ËÂÌÚ_13"/><radialGradient id="_ÂÁ_Ï_ÌÌ_È_ËÂÌÚ_13-5" cx="27.49" cy="60.8" r="8.87" xlink:href="#_ÂÁ_Ï_ÌÌ_È_ËÂÌÚ_13"/><radialGradient id="_ÂÁ_Ï_ÌÌ_È_ËÂÌÚ_13-6" cx="72.61" cy="56.1" r="9.5" xlink:href="#_ÂÁ_Ï_ÌÌ_È_ËÂÌÚ_13"/><radialGradient id="_ÂÁ_Ï_ÌÌ_È_ËÂÌÚ_13-7" cx="115.48" cy="56.1" r="9.41" xlink:href="#_ÂÁ_Ï_ÌÌ_È_ËÂÌÚ_13"/><radialGradient id="_ÂÁ_Ï_ÌÌ_È_ËÂÌÚ_13-8" cx="134.84" cy="56.1" r="9.23" xlink:href="#_ÂÁ_Ï_ÌÌ_È_ËÂÌÚ_13"/><radialGradient id="_ÂÁ_Ï_ÌÌ_È_ËÂÌÚ_13-9" cx="2.8" cy="37.05" r="4.37" xlink:href="#_ÂÁ_Ï_ÌÌ_È_ËÂÌÚ_13"/><radialGradient id="_ÂÁ_Ï_ÌÌ_È_ËÂÌÚ_13-10" cx="10.9" cy="37.05" r="4.66" xlink:href="#_ÂÁ_Ï_ÌÌ_È_ËÂÌÚ_13"/><radialGradient id="_ÂÁ_Ï_ÌÌ_È_ËÂÌÚ_13-11" cx="21.37" cy="32.15" r="5.62" xlink:href="#_ÂÁ_Ï_ÌÌ_È_ËÂÌÚ_13"/><radialGradient id="_ÂÁ_Ï_ÌÌ_È_ËÂÌÚ_13-12" cx="32.2" cy="32.53" r="4.8" xlink:href="#_ÂÁ_Ï_ÌÌ_È_ËÂÌÚ_13"/><radialGradient id="_ÂÁ_Ï_ÌÌ_È_ËÂÌÚ_13-13" cx="41.98" cy="37.04" r="5.23" xlink:href="#_ÂÁ_Ï_ÌÌ_È_ËÂÌÚ_13"/><radialGradient id="_ÂÁ_Ï_ÌÌ_È_ËÂÌÚ_13-14" cx="59.18" cy="37.17" r="6.55" xlink:href="#_ÂÁ_Ï_ÌÌ_È_ËÂÌÚ_13"/><radialGradient id="_ÂÁ_Ï_ÌÌ_È_ËÂÌÚ_13-15" cx="68.15" cy="37.05" r="3.92" xlink:href="#_ÂÁ_Ï_ÌÌ_È_ËÂÌÚ_13"/><radialGradient id="_ÂÁ_Ï_ÌÌ_È_ËÂÌÚ_13-16" cx="74.05" cy="37.02" r="4.64" xlink:href="#_ÂÁ_Ï_ÌÌ_È_ËÂÌÚ_13"/><radialGradient id="_ÂÁ_Ï_ÌÌ_È_ËÂÌÚ_13-17" cx="83.33" cy="37.05" r="4.82" xlink:href="#_ÂÁ_Ï_ÌÌ_È_ËÂÌÚ_13"/><clipPath id="clip-path" transform="translate(0 4.52)"><path class="cls-1" d="M125.17,22.05C120,37,102.55,39.32,102.55,39.32c25.26,1.45,30.67-20,30.67-20C114.31,19.67,100.76,0,100.76,0c3.71,17.76,24.41,22.05,24.41,22.05"/></clipPath><linearGradient id="linear-gradient" x1="970.41" y1="3182.41" x2="970.55" y2="3182.41" gradientTransform="translate(226034.85 740854.69) rotate(180) scale(232.79)" gradientUnits="userSpaceOnUse"><stop offset="0" stop-color="#ae6d29"/><stop offset="0.06" stop-color="#ae6d29"/><stop offset="0.39" stop-color="#fdbe3b"/><stop offset="0.71" stop-color="#fdbe3b"/><stop offset="0.95" stop-color="#ae6d29"/><stop offset="1" stop-color="#ae6d29"/></linearGradient><linearGradient id="linear-gradient-2" x1="959.33" y1="3165.93" x2="959.47" y2="3165.93" gradientTransform="translate(-401969.41 -1326833.76) scale(419.1)" xlink:href="#linear-gradient"/><clipPath id="clip-path-3" transform="translate(0 4.52)"><path class="cls-1" d="M113.78,25.6a25,25,0,0,1-9.24,10.69,24.09,24.09,0,0,0,16.21-12.43A33,33,0,0,1,97.89,5.27c1,13.74,15.89,20.33,15.89,20.33"/></clipPath><linearGradient id="linear-gradient-3" x1="973.32" y1="3186.75" x2="973.46" y2="3186.75" gradientTransform="translate(159693.22 522482.81) rotate(180) scale(163.95)" xlink:href="#linear-gradient"/><clipPath id="clip-path-4" transform="translate(0 4.52)"><path class="cls-1" d="M97.89,5.27c1,13.74,15.89,20.33,15.89,20.33a25,25,0,0,1-9.24,10.69,24.09,24.09,0,0,0,16.21-12.43A33,33,0,0,1,97.89,5.27Z"/></clipPath><linearGradient id="linear-gradient-4" x1="959.33" y1="3165.94" x2="959.47" y2="3165.94" gradientTransform="translate(-401948.28 -1326778.62) scale(419.09)" xlink:href="#linear-gradient"/><clipPath id="clip-path-5" transform="translate(0 4.52)"><path class="cls-1" d="M128.58,10.19a13.9,13.9,0,0,0-9.12,3.16s8.9,4.1,14.71,3.21c1.23-3.86,4.42-2.8,4.42-2.8a11.83,11.83,0,0,0-5.64-3,17.32,17.32,0,0,0-4.37-.57h0"/></clipPath><linearGradient id="linear-gradient-5" x1="976.26" y1="3189.27" x2="976.4" y2="3189.27" gradientTransform="translate(134077.17 437572.28) rotate(180) scale(137.2)" xlink:href="#linear-gradient"/><linearGradient id="linear-gradient-6" x1="959.33" y1="3166" x2="959.47" y2="3166" gradientTransform="translate(-401976.75 -1326890.13) scale(419.11)" xlink:href="#linear-gradient"/></defs><g id="Layer_2" data-name="Layer 2"><g id="Layer_1-2" data-name="Layer 1"><polygon class="cls-2" points="3.01 50.95 3.01 68.28 13.97 68.28 13.97 70.87 0 70.87 0 50.95 3.01 50.95"/><polygon class="cls-3" points="101.07 50.37 101.07 53.04 89.48 53.04 89.48 59.01 100.39 59.01 100.39 61.68 89.48 61.68 89.48 68.2 101.56 68.2 101.56 70.87 86.35 70.87 86.35 50.37 101.07 50.37"/><polygon class="cls-4" points="51.3 50.37 48.19 50.37 55.84 70.87 59.2 70.87 51.3 50.37"/><polygon class="cls-5" points="48.64 60.22 47.08 60.22 47.08 60.22 43.95 60.22 39.85 70.87 43.18 70.87 46.1 62.89 49.69 62.89 48.64 60.22"/><polygon class="cls-6" points="34.49 50.73 34.49 53.35 23.09 53.35 23.09 59.22 33.81 59.22 33.81 61.84 23.09 61.84 23.09 68.25 34.97 68.25 34.97 70.87 20.01 70.87 20.01 50.73 34.49 50.73"/><path class="cls-7" d="M78.9,48.64c-1.73-1.87-4.22-2.79-7.52-2.79H63.91v2.69H67v0H70.8c2.59,0,4.48.61,5.69,1.84s1.75,3.1,1.75,5.74-.61,4.48-1.78,5.71-3.13,1.87-5.72,1.87H67V54.55H63.91v11.8h7.41c3.3,0,5.8-.92,7.52-2.76s2.47-4.27,2.47-7.49-.81-5.74-2.41-7.46" transform="translate(0 4.52)"/><path class="cls-8" d="M122.78,63.34l-.35-2.79a3.73,3.73,0,0,0-3.07-3.61v-.06A4.59,4.59,0,0,0,122,55.07a6.61,6.61,0,0,0,.86-3.36A5.4,5.4,0,0,0,121,47.26a7.82,7.82,0,0,0-4.94-1.41H107v2.69h3.13v0h5.51a5,5,0,0,1,3.16.81,3.05,3.05,0,0,1,1,2.5,4.29,4.29,0,0,1-1,3,4.74,4.74,0,0,1-3.1.89h-5.54v0H107V66.35h3.13v-8h5.54a4.15,4.15,0,0,1,2.7.75,3.6,3.6,0,0,1,1.09,2.47l.25,2.06a5.38,5.38,0,0,0,.89,2.7H124a4.93,4.93,0,0,1-1.2-3" transform="translate(0 4.52)"/><path class="cls-9" d="M140.14,47.32a6.27,6.27,0,0,1,2.35,4.75h-3A4.34,4.34,0,0,0,138,49.31a5.53,5.53,0,0,0-3.37-.86,6.22,6.22,0,0,0-3,.58,2.25,2.25,0,0,0-1.27,2.16,2.3,2.3,0,0,0,1.47,2.09,21,21,0,0,0,3.42,1.22,29.68,29.68,0,0,1,5.17,1.93,4.77,4.77,0,0,1,2.54,4.26,4.9,4.9,0,0,1-2.07,4.17,11.9,11.9,0,0,1-11.44,0,6.85,6.85,0,0,1-2.68-5.47h3a4.88,4.88,0,0,0,1.65,3.35,6.13,6.13,0,0,0,3.68.91,7.2,7.2,0,0,0,3.56-.78A2.29,2.29,0,0,0,140,60.85a2.89,2.89,0,0,0-1.88-2.59,35.93,35.93,0,0,0-3.92-1.33,34.44,34.44,0,0,1-4.53-1.63,4.35,4.35,0,0,1-2.27-3.95,4.68,4.68,0,0,1,2.18-4.09,9.07,9.07,0,0,1,5.22-1.41,8.63,8.63,0,0,1,5.39,1.47" transform="translate(0 4.52)"/><polygon class="cls-10" points="5.59 41.42 5.59 42.56 1.25 42.56 0.63 42.56 0 42.56 0 31.54 1.25 31.54 1.25 41.42 5.59 41.42"/><polygon class="cls-11" points="7.29 42.56 7.29 31.54 14.51 31.54 14.51 32.59 8.54 32.59 8.54 36.51 14.33 36.51 14.33 37.58 8.54 37.58 8.54 41.5 14.51 41.5 14.51 42.56 7.29 42.56"/><path class="cls-12" d="M25.34,38,24,35H18.7l-1.31,3H16l5.35-11.78L26.7,38Zm-1.76-4-2.2-5.08L19.16,34Z" transform="translate(0 4.52)"/><path class="cls-13" d="M34.84,32.75a4,4,0,0,1-2.41.92L36.17,38H34.49l-3.56-4.36H29.47V38H28.22V27h3.9a4.06,4.06,0,0,1,2.72.93,3.1,3.1,0,0,1,0,4.8m-2.54-.16A2.37,2.37,0,0,0,34,31.94a2.16,2.16,0,0,0,.7-1.62,2,2,0,0,0-.67-1.59,2.45,2.45,0,0,0-1.76-.63H29.47v4.49Z" transform="translate(0 4.52)"/><polygon class="cls-14" points="39.19 42.56 37.94 42.56 37.94 30.84 44.77 39.64 44.77 31.54 46.02 31.54 46.02 43.24 39.19 34.44 39.19 42.56"/><polygon class="cls-15" points="59.19 33.86 55.21 43.45 52.37 31.54 53.65 31.54 55.53 39.54 59.19 30.89 62.84 39.54 64.73 31.54 66 31.54 63.18 43.45 59.19 33.86"/><rect class="cls-16" x="67.52" y="31.54" width="1.25" height="11.02"/><polygon class="cls-17" points="70.47 31.51 73.42 31.51 74.67 31.51 77.62 31.51 77.62 32.56 74.67 32.56 74.67 42.52 73.42 42.52 73.42 32.56 70.47 32.56 70.47 31.51"/><polygon class="cls-18" points="79.32 42.56 79.32 31.54 80.57 31.54 80.57 36.5 86.09 36.5 86.09 31.54 87.34 31.54 87.34 42.56 86.09 42.56 86.09 37.63 80.57 37.63 80.57 42.56 79.32 42.56"/><g class="cls-19"><rect class="cls-20" x="100.76" y="4.52" width="32.46" height="40.77"/></g><g class="cls-19"><rect class="cls-21" x="98.05" y="-2.08" width="37.87" height="44.93" transform="translate(-1.7 21.17) rotate(-8.08)"/></g><g class="cls-22"><rect class="cls-23" x="97.89" y="9.79" width="22.86" height="31.02"/></g><g class="cls-24"><rect class="cls-25" x="95.82" y="3.82" width="27" height="33.92" transform="translate(-1.84 20.1) rotate(-8.08)"/></g><g class="cls-26"><rect class="cls-27" x="119.46" y="14.71" width="19.13" height="7.26"/></g><g class="cls-26"><rect class="cls-28" x="119.04" y="8.88" width="19.96" height="9.88" transform="translate(-0.66 22.8) rotate(-8.08)"/></g></g></g></svg>