<svg xmlns="http://www.w3.org/2000/svg" viewBox="0 0 1156.73 398.06"><defs><style>.cls-1{fill:#232b38;}</style></defs><g id="Layer_2" data-name="Layer 2"><g id="Layer_1-2" data-name="Layer 1"><polygon class="cls-1" points="168.89 295.77 153.55 314.93 139.72 297.66 125.9 314.93 112.07 297.66 98.25 314.93 84.43 297.66 70.61 314.93 56.79 297.66 42.97 314.93 29.15 297.66 15.33 314.93 0 295.77 3.02 293.36 15.33 308.74 29.15 291.47 42.97 308.74 56.79 291.47 70.61 308.74 84.43 291.47 98.25 308.74 112.07 291.47 125.9 308.74 139.72 291.47 153.55 308.74 165.87 293.36 168.89 295.77"/><polygon class="cls-1" points="890.85 18.52 911.3 36.02 911.26 1.05 890.85 18.52"/><polygon class="cls-1" points="911.3 36.02 890.89 53.49 911.34 70.99 911.3 36.02"/><polygon class="cls-1" points="871.51 260.44 856.17 279.59 842.34 262.32 828.51 279.59 814.69 262.32 800.87 279.6 787.05 262.32 773.23 279.6 759.41 262.32 745.59 279.6 731.77 262.32 717.95 279.6 702.62 260.44 705.64 258.02 717.95 273.4 731.77 256.13 745.59 273.4 759.41 256.13 773.23 273.4 787.05 256.13 800.87 273.4 814.69 256.13 828.51 273.4 842.34 256.13 856.17 273.4 868.49 258.02 871.51 260.44"/><path class="cls-1" d="M359.25,300.74a57,57,0,0,1-80.64,80.64l14.48-14.48a36.54,36.54,0,0,0,51.68-51.68Z"/><polygon class="cls-1" points="543.78 262.46 564.23 279.96 564.19 244.99 543.78 262.46"/><polygon class="cls-1" points="564.23 279.96 543.82 297.43 564.27 314.93 564.23 279.96"/><polygon class="cls-1" points="995.72 206.95 980.38 226.1 966.55 208.83 952.73 226.1 938.9 208.83 925.08 226.1 911.26 208.83 897.44 226.11 883.62 208.83 869.8 226.1 855.98 208.83 842.16 226.1 826.83 206.94 829.85 204.53 842.16 219.91 855.98 202.64 869.8 219.91 883.62 202.64 897.44 219.91 911.26 202.64 925.08 219.91 938.9 202.64 952.73 219.91 966.55 202.64 980.38 219.91 992.7 204.53 995.72 206.95"/><path class="cls-1" d="M1059.41,16.68a57,57,0,1,1,80.65,80.64l-14.48-14.48a36.55,36.55,0,1,0-51.69-51.68Z"/></g></g></svg>