<svg xmlns="http://www.w3.org/2000/svg" xmlns:xlink="http://www.w3.org/1999/xlink" viewBox="0 0 181.76 126.23"><defs><style>.cls-1{fill:none;}.cls-2{clip-path:url(#clip-path);}.cls-3{fill:#fff;}</style><clipPath id="clip-path" transform="translate(-0.87 -4.7)"><rect class="cls-1" width="144.18" height="134.57"/></clipPath></defs><g id="Layer_2" data-name="Layer 2"><g id="Layer_1-2" data-name="Layer 1"><g class="cls-2"><path class="cls-3" d="M28.45,21.8c3.38.46,6.78.83,10.14,1.43a2.29,2.29,0,0,0,2.83-1.12c.55-.9,1.39-1.63,1.86-2.56a3.64,3.64,0,0,0,.45-2.36C42.52,12.43,44,8.25,47.94,6s8.23-1.52,11.77,2a2.9,2.9,0,0,0,1.79,1c9.15-.39,16,3.95,21.31,10.84,2.17,2.82,4.07,3.51,7.57,2.91a43.83,43.83,0,0,1,13.33-.24c11.66,1.68,17.59,10.27,15.68,21.91-1.4,8.55-5.27,16-10.2,23-1.28,1.82-1.59,3.17.08,4.78A8,8,0,0,1,110.44,74c1.45,2.58,2.89,4.42,6.6,4.31,4-.11,6.6,2.84,7.64,6.76a8.54,8.54,0,0,1-3.19,9.57,3.65,3.65,0,0,0-1.55,3.64c.59,10.56-5.53,18.2-16.12,19.28-5,.51-10.21,0-15.26-.63-2.26-.26-3.45,0-4.78,1.9-3.69,5.12-8.36,9.18-14.52,11-9,2.71-16.47-.35-23-6.51a26.41,26.41,0,0,1-4.29-5c-1.13-1.79-2.35-2-4.23-1.55a39.51,39.51,0,0,1-16.24.46c-9-1.76-13.87-7-15.06-16.15a4.63,4.63,0,0,0-1.59-2.69C1.59,95.75.16,92,1.21,88.27c1.09-3.93,4.29-6.44,8.51-7a4.1,4.1,0,0,0,2.55-1.61c1.86-2.66,3.41-5.54,5.27-8.21a2.47,2.47,0,0,0,0-3.39c-4.52-6.43-8.38-13.24-10-21A30.92,30.92,0,0,1,7,37.86C7.77,30.14,12.75,24.8,20.44,23,23,22.4,25.73,22.2,28.45,21.8Zm65.72,48h.12c-.18-2.92-.26-5.86-.57-8.77a4.86,4.86,0,0,0-1.25-2.72,130.91,130.91,0,0,0-28.06-21,3.35,3.35,0,0,0-2.82,0A132.13,132.13,0,0,0,33.77,58.23a4.11,4.11,0,0,0-1.3,2.46q-.16,9.14,0,18.29a3.65,3.65,0,0,0,1.1,2.28,141.72,141.72,0,0,0,27.49,21c1.47.86,2.6,1,4,0,7.59-5.46,15.39-10.65,22.74-16.41,6.37-5,6.31-5.61,6.4-13.85C94.18,71.23,94.17,70.5,94.17,69.77ZM87.68,26.68C93,36.3,95.63,46.3,97,56.7A2.6,2.6,0,0,0,97.54,58c2.53,2.82,5.1,5.61,7.87,8.65,1.65-2.64,3.29-5.06,4.72-7.6,3.13-5.58,5.6-11.41,5.89-17.93.22-5.19-1.21-9.76-5.86-12.62C103.09,24.18,95.55,25.28,87.68,26.68ZM21,66.62c2.39-2.68,4.67-5.11,6.79-7.67a6.83,6.83,0,0,0,1.44-3.18A87.71,87.71,0,0,1,36.57,30.3c.52-1.07,1.07-2.14,1.71-3.41-6-1.31-11.7-1.83-17.4-.23-7,2-10.65,6.84-10.44,14C10.72,50.58,15.55,58.64,21,66.62Zm84.38,6.21c-2.27,2.57-4.16,5-6.38,7.13a7.48,7.48,0,0,0-2.31,4.87,79.57,79.57,0,0,1-7.93,26.26c-.32.63-.6,1.27-1,2.06,6.75,1.41,13.26,2.17,19.71-.21a13.29,13.29,0,0,0,8.42-16.09c-8-.17-13.39-9.39-6.06-17.18ZM38.16,113a3.9,3.9,0,0,0-.16-.79A80.35,80.35,0,0,1,29.22,83a3,3,0,0,0-.6-1.53c-2.47-2.79-5-5.54-7.76-8.6l-6,9.61c4,2.67,5.47,6.23,4.43,10.53-1.11,4.6-4.55,6.67-9,7.22-.33,5.7,3.21,10.68,8.94,12.66C25.49,115,31.74,114.37,38.16,113Zm43.53,2.62a6,6,0,0,0-.74-.54c-5.62-2.37-11.23-4.75-16.86-7.07a2.6,2.6,0,0,0-1.81-.13c-5.89,2.52-11.74,5.11-17.82,7.78,4.64,6.06,10,11.29,18.38,11.39C71.4,127.2,76.83,122,81.69,115.66ZM44.48,24.21c5.69,2.44,11.3,4.75,16.81,7.25a3.86,3.86,0,0,0,3.59-.08c5.05-2.22,10.17-4.28,15.26-6.4.49-.2,1-.44,1.47-.66C78,18,68.53,11.07,62.05,13c.41,7.89-7.25,13.5-15.5,8.56-.46.53-1,1.05-1.4,1.62A10.84,10.84,0,0,0,44.48,24.21Zm14.37,81.68L33.57,87c.24,5.49,4.59,18.91,7.91,23.76a2.35,2.35,0,0,0,2.08.78C48.67,109.78,53.72,107.83,58.85,105.89Zm8.4,0c4.88,1.9,9.79,3.76,14.66,5.73,1.53.62,2.32.23,3.08-1.2a75.73,75.73,0,0,0,7.4-21.62c.12-.64.17-1.29.21-1.66Zm0-72L92.67,52.58a72.13,72.13,0,0,0-8.1-23.87c-.24-.42-1.11-.9-1.47-.77C77.79,29.86,72.51,31.88,67.24,33.87Zm-8.46.06L42.42,27.57c-4.12,5.91-9,20.16-8.72,24.9ZM13.12,85.85c-1.06,3.63-2,6.9-3.06,10.45a5.47,5.47,0,0,0,5.64-3.87C16.57,90.18,15.82,88.11,13.12,85.85ZM98.29,64l-.5.37V75.39c5.48-4.06,5.66-5.39,1.5-10.07C98.92,64.9,98.62,64.42,98.29,64ZM119.1,91.6a5.33,5.33,0,0,0-3.79-9.66ZM48.84,18.42c2.84,1.77,5,1.79,7,.31,1.7-1.23,2.69-2.9,2.12-5.85ZM28.32,63.79c-1.63,1.92-2.93,3.36-4.1,4.9-.33.42-.6,1.33-.38,1.64,1.25,1.71,2.65,3.3,4,4.92l.48-.29ZM56,9.8a5,5,0,0,0-6.54-.45A4.69,4.69,0,0,0,47.33,15Zm59.74,83.27-3.87-9.93C108.49,87.6,110.15,92,115.72,93.07ZM9.55,85c-2.74.59-4.34,2-4.82,4.46-.4,2-.15,3.92,1.86,5.29C7.58,91.53,8.51,88.46,9.55,85Z" transform="translate(-0.87 -4.7)"/><path class="cls-3" d="M130.73,20.23V23.4c-.06,7.57-.08,15.15-.2,22.72-.14,8.85-3.46,16.81-7.14,24.64a25.78,25.78,0,0,1-2,4.15c-.48.69-1.61.92-2.44,1.36-.26-1-1-2.1-.71-2.84,1.45-3.61,3.23-7.1,4.79-10.67a47.75,47.75,0,0,0,4-19.21c0-7.17,0-14.34,0-21.51a2.79,2.79,0,0,0-1.66-2.83,6.39,6.39,0,0,1-2.93-7.38,6.17,6.17,0,0,1,6.18-4.93c7.33-.09,14.67-.08,22,0a6.24,6.24,0,0,1,6.11,5,6.82,6.82,0,0,1-3.4,7.68c-.76.43-1.72,1.4-1.73,2.13-.08,8-.09,16,.07,24,.14,7.63,2.59,14.7,5.87,21.5Q169,90.92,180.5,114.65c.49,1,1,2,1.43,3.1a9.47,9.47,0,0,1-8.71,13.12q-33.74.12-67.45,0c-4.82,0-9.15-3.76-9.64-8.09-.14-1.3-.12-2.75,1.46-2.8.67,0,1.76,1.21,2,2.06,1,3.47,3.23,5.27,7.21,5.27,10.83,0,21.67,0,32.5-.07s21.84,0,32.75,0c5.8,0,8.42-4.12,5.91-9.35-8.21-17.17-16.5-34.31-24.7-51.49A53.3,53.3,0,0,1,148,42.78c0-6.76,0-13.52,0-20.28,0-1.59-.3-2.35-2.13-2.31C141,20.31,136.07,20.23,130.73,20.23Zm8.7-3.65c3.42,0,6.83,0,10.25,0,2.35,0,3.63-1.08,3.66-3s-1.2-3-3.55-3.06c-6.75,0-13.5,0-20.24,0-2.1,0-3.51.7-3.62,3-.09,2,1.09,3,3.5,3.06C132.77,16.6,136.1,16.58,139.43,16.58Z" transform="translate(-0.87 -4.7)"/><path class="cls-3" d="M138.85,124.18c-8.4,0-16.79,0-25.18,0-2.71,0-5.09-.71-6.52-3.06-.48-.79-.05-2.13,0-3.21,1,.32,1.94.58,2.86,1,1.21.52,2.38,1.62,3.57,1.62q25.42.17,50.84,0c3.27,0,4.64-2.25,3.29-5.34-4.12-9.39-8.32-18.75-12.48-28.12-1.32-3-2.54-6-4-8.87a3.48,3.48,0,0,0-2.47-1.66c-6.27-.16-12.54-.17-18.81-.07-.74,0-1.43,1-2.21,1.47a20.24,20.24,0,0,1-2.46,1c-.23-.87-.81-1.82-.62-2.59a4.38,4.38,0,0,1,4.45-3.5c6.92-.07,13.85,0,20.77,0,2.22,0,3.61,1.36,4.46,3.27,5.67,12.71,11.37,25.4,16.94,38.15,2.18,5-1,9.81-6.45,9.88-8.64.12-17.28,0-25.91,0Z" transform="translate(-0.87 -4.7)"/><path class="cls-3" d="M53.64,69.67a9.33,9.33,0,1,1,9.17,9.44A9.24,9.24,0,0,1,53.64,69.67ZM63,75.47a5.72,5.72,0,0,0,5.76-5.67,5.76,5.76,0,1,0-11.51,0A5.77,5.77,0,0,0,63,75.47Z" transform="translate(-0.87 -4.7)"/></g></g></g></svg>