<svg xmlns="http://www.w3.org/2000/svg" viewBox="0 0 166.48 169.66"><defs><style>.cls-1{fill:#fff;}</style></defs><g id="Layer_2" data-name="Layer 2"><g id="Layer_1-2" data-name="Layer 1"><path class="cls-1" d="M85,93.84c1.33,1,2.76,2,4,3.17,7,6.69,13.9,13.43,20.85,20.15,2.57,2.49,5.56,3.57,8.4.87,3.36-3.2,1.79-6.3-1-9-6.84-6.59-13.71-13.15-20.48-19.82a25,25,0,0,1-2.78-4.07l1.44-1.17c1.2,1,2.47,1.89,3.58,3q10.13,9.69,20.16,19.44c2.58,2.51,5.36,3.83,8.22.85s1.38-5.75-1.28-8.15c-9.52-8.58-19-17.19-28.88-26.12l-11,11a17.48,17.48,0,0,1-16,5.06c-6.58-1.1-8.86-6.9-4.38-11.78,8.58-9.31,17.17-18.67,26.42-27.29C102,40.69,116.77,39.55,128.51,46S147.42,65.9,144.82,79.2c-1.25,6.41-4.39,12.47-6.85,18.63-.46,1.14-1.75,2-2.65,2.93l-1.39-.84a48.36,48.36,0,0,1,2-5c4.56-8.57,7.59-17.39,5.28-27.31C136.4,47,111.05,38,95,51.85,85.44,60.1,77.11,69.78,68.43,79c-3,3.14-1.81,5.94,2.43,6.69a14.13,14.13,0,0,0,12.84-4c3.23-3.13,6.54-6.22,9.44-9.65,2.61-3.09,4.51-3.34,7.6-.41,8.58,8.15,17.48,16,26.24,23.91,8,7.26,6.74,13.52-3.43,17.15-1,8-3.5,10.16-11.71,10.16-2.3,6.34-3.86,7.63-8.11,6.66,0-.31-.14-.76,0-.92,6-6,6-6.88-.29-13-5.63-5.44-11.28-10.87-16.86-16.37a36.91,36.91,0,0,1-3-3.94Z"/><path class="cls-1" d="M84.29,113.6c6.28.69,9.34,4,9.24,9.81,9.23,3.43,10.29,9.06,3.23,15.6-2.44,2.27-4.83,4.6-7.4,6.71-4.28,3.51-8.9,2.62-11.89-2-.69-1.05-1.9-2.42-2.92-2.47-5.13-.23-7.87-3.05-9.17-7.61-9.31-1.4-10.71-2.67-12.09-10.86-9.56-2.86-11.19-9.51-4-16.43,3.24-3.11,6.44-6.28,9.86-9.19,5.06-4.29,11.16-2.62,13.79,3.47.48,1.12,1.54,2.64,2.51,2.78C81.21,104.28,83.72,107.83,84.29,113.6ZM84,131c.53.51,1.06,1,1.58,1.54-1.37,1.59-3.19,3-4,4.82-.72,1.68-.34,3.84-.45,5.79,2,.1,4.51,1,5.76.13a62.12,62.12,0,0,0,9.91-9.07,5.05,5.05,0,0,0,.27-4.83c-.76-1.13-3-1.56-4.64-1.74a7.17,7.17,0,0,0-3,.82c-.26-3.65.64-7.92-1-9.34-1.9-1.69-6-.9-8.49-1.13-.36-2.92.4-7.71-1.52-9.32s-6.59-.38-10.37-.38c.36-.83,1.3-2,1.25-3.1-.09-2-.17-4.63-1.39-5.64s-4.54-1.28-5.73-.34a96.8,96.8,0,0,0-12.72,11.9c-1.05,1.18-.94,5.08.14,6a7.05,7.05,0,0,0,6.42.77c2.72-1.36,4.74-4.1,7.14-6.15a26.25,26.25,0,0,1,3.32-2.1l1.07,1.07a14.55,14.55,0,0,1-1.75,2.94C64,115.55,62,117.37,60,119.11c-3,2.63-4.56,5.73-1.48,9s6.3,1.6,9.08-1.09c2.27-2.2,4.53-4.42,7-6.43.68-.56,2-.4,3-.56l1.14,1.86c-2.39,2-4.81,3.93-7.16,6-2.74,2.36-4,5.26-1.29,8.22s5.59,2,8.26-.54C80.24,133.9,82.16,132.48,84,131Z"/><path class="cls-1" d="M23.7,95.48c-.44,2-.69,3.18-1,4.37a85,85,0,0,0-2.1,9.21c-1,8.14,1.17,11.66,8.7,14.74,3.38,1.38,6.83,2.64,10.33,3.72,5.32,1.64,8.34,5.26,9.55,10.53.78,3.41,1.4,6.85,2.16,10.26,2,9.16,9.25,16.53,17.52,17.77-1.76-7.15-7.5-13.84-2.86-22.45,1,1.09,1.86,1.63,1.79,2-1.58,6.88,1.77,12.6,4.14,18.58.61,1.56.47,3.41.67,5.13-1.89.08-4,.68-5.64.14-9.82-3.12-17.21-9.77-18.36-19.81-1.5-13-7.67-19.39-20-22.84-12.15-3.38-15.73-20.64-7.42-30.57C21.42,95.93,22,96,23.7,95.48Z"/><path class="cls-1" d="M41,112.2c-10.29-12.7-20.14-25.77-17-43.72C26.22,55.31,34.41,46.69,47.3,43.2s23.94.67,33,10.21a11.31,11.31,0,0,1,1.46,3l-1.21,1a48.79,48.79,0,0,1-3.94-3.06C66,44.29,52.21,42.46,40.43,49.56a28.17,28.17,0,0,0-12.18,34.3c3,8.28,8.53,15.65,12.88,23.44.73,1.3,1.27,2.69,1.9,4Z"/><path class="cls-1" d="M37.71,41.8c-1.46-5.19,2.52-10.72,7.36-11.54a11.54,11.54,0,0,1,4.46,0c4.88,1.14,7.7-1,9.16-5.42S59,17.09,55,14.57c-2.37-1.5-5.85-2.53-4.51-7.31,3.34,2.49,6.4,4.42,9,6.81,3.61,3.28,4,8.72,1.4,13.87-2.29,4.48-5.72,6.94-11,5.66-4.42-1.08-7.39.71-9.59,4.4C39.74,39.08,38.93,40.07,37.71,41.8Z"/><path class="cls-1" d="M156,138.36c-4.66-1.53-6.21-6-5.35-12a77.91,77.91,0,0,0,.67-17.65c-.27-3-3-5.74-4.4-8.68a13.23,13.23,0,0,1-.69-3.32c1,.35,2.5.42,2.87,1.1,2.18,4,4.62,8,5.92,12.31a19.79,19.79,0,0,1,.21,10.33,30.32,30.32,0,0,0,.65,18.07A1.42,1.42,0,0,1,156,138.36Z"/><path class="cls-1" d="M65.36,3.84c1.46,1.27,3,2.45,4.36,3.81,2.11,2.09,4,4.46,6.24,6.38.82.7,2.45.44,3.7.62a12.51,12.51,0,0,0,.46-3.53C79.33,6.22,81.9,3.06,84.93,0c.71.45,1.24.66,1.22.78-.87,4.93-1.28,10-2.85,14.71-1.14,3.39-5.14,3.89-7.62,2-4.45-3.4-8.22-7.69-12.27-11.6Z"/><path class="cls-1" d="M118.16,34.32c1.78-.74,3.58-1.42,5.33-2.22s3.56-1.76,5.33-2.65c-1.13-1.66-2-3.64-3.45-4.9a13.81,13.81,0,0,1-3.63-16c.17-.35.79-.49,2.07-1.23a40.05,40.05,0,0,1,.27,5.85c-.39,3.91.21,7.1,4,9.38,2.69,1.63,5.3,3.83,4,7.72-1.24,3.6-3.75,5.23-7.62,5.16a28.31,28.31,0,0,0-5.54,1Z"/><path class="cls-1" d="M153.92,41.89l3.51-3,1.45.61c-.57,1.48-.75,3.67-1.81,4.25-1.41.78-4.14,1-5.16.18-1.78-1.51-2.88-4-3.93-6.17-1.57-3.28-3.45-3.88-6.68-1.95a106,106,0,0,1-10.05,4.72l-1.13-1.25c.74-1,1.53-3,2.23-2.93,5.81.28,10-9.38,16.49-3C151.07,35.52,152.18,38.86,153.92,41.89Z"/><path class="cls-1" d="M0,75.74a11.78,11.78,0,0,1,11.88,3.31c1.14,1.15,1.73,2.81,2.67,4.17,2.2,3.2,4.46,6.36,7,9.94a5.52,5.52,0,0,1-7.28-2.7C11.72,83.29,7.75,78.1,0,75.74Z"/><path class="cls-1" d="M20.6,60.64c-2.53.46-4.68.3-6.18,1.22-4.31,2.66-3.7,7.32,1,10.17,1.07.65,1.78,1.92,2.65,2.91-1.44,0-3.47.51-4.2-.23-2.17-2.2-5.43-5-5.29-7.39.18-3.11,2.75-6.54,5.18-8.91C15.56,56.64,18.64,56.86,20.6,60.64Z"/><path class="cls-1" d="M147.06,55.64c6.31-.22,12.88,2.67,18.32-3.37.36.79.73,1.57,1.1,2.36-1.75,1.35-3.31,3.24-5.29,3.95C156.15,60.39,151.39,59.36,147.06,55.64Z"/></g></g></svg>