<svg xmlns="http://www.w3.org/2000/svg" viewBox="0 0 94.25 126.87"><defs><style>.cls-1{fill:#fff;}</style></defs><g id="Layer_2" data-name="Layer 2"><g id="Layer_1-2" data-name="Layer 1"><path class="cls-1" d="M8.36,126.87H5.54c-6.79-4-7.32-8.28-1.7-13.92,1.08-1.08,2.08-2.25,3.25-3.21,2.06-1.68,2.75-3.68,2.74-6.39-.1-33.08,0-66.16-.14-99.24C9.68.79,10.69,0,13.88,0,39.32.12,64.76.06,90.2.1a24.8,24.8,0,0,1,4,.67V107.85a24.94,24.94,0,0,1-4.06.68c-16.66,0-33.34.52-50-.18-8.69-.36-15.17,1.74-20.65,8.59C16.49,120.78,12.14,123.6,8.36,126.87Zm4.37-22.74C18.46,98.37,24,93.53,28.6,88c4.19-5,9.92-5.79,15.47-7.34.57-.17,2.19,1.09,2.12,1.3-1.47,4.48-2.44,9.35-4.93,13.22s-6.44,6.57-10.38,10.39H91.21V3.14H12.73ZM37.5,94.76l-1.3-4.17-3.82-1.25L9.72,111.68l5.38,5.44Zm1.81-2.89c2.87-3,3.15-4.65,1.61-6.14s-3.39-1.06-5.49,1.38C38.19,87.08,40.07,88,39.31,91.87ZM11.56,121.58c2.08-3.7-1.71-4.42-2.8-6.19s-2.33-1.76-3.14.14Zm-8.2-3.68c-.44,4.78,1.38,6.41,4.93,5.17Z"/><path class="cls-1" d="M80.15,29.57c-.62,1.26-1,2.78-1.93,3.73-2.5,2.52-5.25,4.79-7.43,7.84,2.07-1.21,4.09-2.53,6.23-3.59a7.93,7.93,0,0,1,2.79-.22c-.23.82-.22,1.85-.73,2.41Q72,47.62,64.8,55.31c-.48.52-1.54.49-2.34.72.15-.9,0-2.05.49-2.65A81.87,81.87,0,0,0,69.4,45.3c-3.76,2.19-7.47,4.48-11.31,6.53A18.78,18.78,0,0,1,53.79,53l1.56-3.61L50.86,50l1.39-3.25c-2-.79-2.3-1.9-.2-3.3C61.31,37.25,70.56,31,79.87,24.93c.69-.45,1.83-.2,2.75-.28a11.9,11.9,0,0,1-1.1,2.55A11.71,11.71,0,0,1,79.41,29Z"/><path class="cls-1" d="M38.59,16.34c4.45-.07,8.5,3.14,10,7.94,1.38,4.31.06,7.83-4,10.61-2,1.35-5,2.33-5.64,4.17-.55,1.49,1.7,4,2.65,6.06A5,5,0,0,1,40,51.71c-3,2.2-3,4.3-1.24,7.41,1.09,1.89,1.08,4.46,1.34,6.75.06.51-.85,1.13-1.31,1.7a6.89,6.89,0,0,1-1.33-1.74c-.92-2.73-1.5-5.58-2.58-8.24-1.2-3-.12-5.11,2.06-6.78,2.75-2.11,2.82-4,.77-6.77-3.43-4.59-2.58-7.35,2.61-10,6.76-3.41,8-8.41,3.18-12.89a6.54,6.54,0,0,0-10.77,2c-.25.52-.3,1.22-.68,1.59a8.21,8.21,0,0,1-1.89,1.1,5.82,5.82,0,0,1-.62-2.13C30.15,19.67,34.2,16.4,38.59,16.34Z"/><path class="cls-1" d="M28.71,60.37a8.35,8.35,0,0,1,.6,9.12,1.88,1.88,0,0,1-1.34.84c-.43,0-1.22-.75-1.16-1,.7-3.08,1.25-6-1.34-8.69-.35-.37,1.19-2.55,1.85-3.9-3.49-4.77-3.49-4.77.09-9a53.92,53.92,0,0,1-3.07-4.46c-.28-.49.15-1.38.26-2.09.62.15,1.48.1,1.81.5a42.89,42.89,0,0,1,4,5.35c.32.53-.07,1.73-.49,2.39A19.12,19.12,0,0,1,27.57,52C30.89,56.65,30.89,56.65,28.71,60.37Z"/></g></g></svg>