<svg xmlns="http://www.w3.org/2000/svg" viewBox="0 0 114.7 128.63"><defs><style>.cls-1{fill:#fff;}</style></defs><g id="Layer_2" data-name="Layer 2"><g id="Layer_1-2" data-name="Layer 1"><path class="cls-1" d="M54.82,128.63C47.07,126.36,42,121.19,39,113.86c-.2-.49-.47-1.21-.86-1.33-2.9-1-2.65-3.24-2.63-5.58,0-7.69-.13-15.38.08-23.06A7.51,7.51,0,0,0,33,77.72a35.36,35.36,0,0,1-10.89-21c-2.78-18.19,10.7-36.81,29-39.71,23.33-3.68,43.37,14.52,41.6,38A32.9,32.9,0,0,1,82.06,77.27,8.75,8.75,0,0,0,79,84.64c.23,7.77,0,15.56.09,23.34,0,1.83-.11,3.44-2.16,4.27a3,3,0,0,0-1.33,1.61c-3,7.37-8.09,12.47-15.81,14.77ZM72.49,79.5l6.61-6.85a30,30,0,0,0-29-49.76C38.52,25.93,31,33.41,28.14,44.83c-2.89,11.66.55,21.83,9.53,30,1.44,1.3,2.63,2.87,4.23,4.65Zm-28,32.9c2.48,6.41,8.09,10.87,13.18,10.7,4.94-.16,10.51-4.92,12.39-10.7ZM41.18,87.74c-.74,5.23-.75,5.26,3.6,6,4.69.82,9.39,1.57,14.08,2.33s9.67,1.56,14.49,2.33c.92-5.08.67-5.41-3.92-6.07C66.63,92,63.84,91.44,61,91Zm32.31,18.85c.62-2.07-.33-2.66-1.95-2.92-5.6-.88-11.18-1.84-16.78-2.76-4.47-.74-8.95-1.45-13.68-2.21v7.89ZM61.21,84.82v.69l12.18,2,.58-.87c-.56-.59-1.09-1.69-1.67-1.71C68.61,84.74,64.91,84.82,61.21,84.82Z"/><path class="cls-1" d="M36.12,0c2.4,4.37,4.88,8.7,7.09,13.16.29.59-.6,2.37-1.35,2.72a3.13,3.13,0,0,1-3-.73A101.46,101.46,0,0,1,33.05,3.67C32.68,2.8,34,1.24,34.48,0Z"/><path class="cls-1" d="M80.12,0c1.82,1.36,2.07,3,1,5-1.71,3.12-3.3,6.31-4.92,9.48-.76,1.47-1.77,2.36-3.51,1.55s-1.8-2.38-1-3.91C73.7,8,75.82,4,77.92,0Z"/><path class="cls-1" d="M18.69,33.17c-4.33-2.33-8.52-4.48-12.57-6.88-.54-.32-.75-2.13-.36-2.82s2-1.47,2.62-1.19c4.15,1.83,8.24,3.83,12.19,6,.61.34.79,2.14.55,3.1C21,32.09,19.7,32.48,18.69,33.17Z"/><path class="cls-1" d="M95.63,33.35c-1-1-2.12-1.5-2.28-2.24s.13-2.5.75-2.85c3.91-2.16,7.93-4.16,12-6,.65-.29,2.16.42,2.68,1.12s.33,2.36-.12,2.63C104.47,28.56,100.14,30.87,95.63,33.35Z"/><path class="cls-1" d="M7.93,57.2a29.33,29.33,0,0,1-5.71-.11C1.3,56.91,0,55.54,0,54.77a3.38,3.38,0,0,1,2.17-2.5,83.49,83.49,0,0,1,11.73,0c.81,0,2.08,1.68,2.08,2.59s-1.39,2.07-2.34,2.26a30.17,30.17,0,0,1-5.71.1Z"/><path class="cls-1" d="M106.54,52.13c1.73,0,3.54-.31,5.16.1a4.43,4.43,0,0,1,2.91,2.42c.42,1.61-.84,2.61-2.63,2.6-3.64,0-7.29.15-10.91-.14-.94-.08-1.78-1.54-2.66-2.37.89-.87,1.66-2.24,2.7-2.5C102.83,51.83,104.72,52.13,106.54,52.13Z"/></g></g></svg>