<svg xmlns="http://www.w3.org/2000/svg" viewBox="0 0 844.35 301.37"><defs><style>.cls-1{fill:#ea4b4b;}.cls-2{fill:#fff;}.cls-3{fill:#232b38;}</style></defs><g id="Layer_2" data-name="Layer 2"><g id="Layer_1-2" data-name="Layer 1"><path class="cls-1" d="M576.21,203.47c27.12,9.07,56.72,1.07,82.66-11.36s50.1-29.27,77-39.12c34.87-12.77,73.46-12.26,108.49-.12V0H287.25C271.13,24.15,261.14,53.23,264,82.52c3.54,36.07,30.69,70.3,64.33,71.92,41.12,2,75.14-41.17,116.29-39.84C497.36,116.3,525.85,186.62,576.21,203.47Z"/><path class="cls-2" d="M348.34,28.21c-25.71-17.2-62.5-15.65-86.66,3.66C246,44.4,235.33,63.41,217.18,72c-33.85,16-79.25-10.74-109.44,11.38h0c-28.7,21-18.12,62.39,4.81,82.79,26,23.11,70.18,34.93,103.64,41.89,68.09,14.15,120.11-18.93,152.92-78.56C387.94,95.24,382.59,51.14,348.34,28.21Z"/><path class="cls-2" d="M175.78,301c14.44-1.73,27.66-9.36,37.39-20.11s16.39-24.92,17.49-39.67c1.14-15.28-4.51-30-14.22-41.61-13.16-15.73-31.21-24.54-50.53-29.59a60.32,60.32,0,0,1,13.5-.66c20.14,1.32,38.31,11.5,56.38,19.6C252.19,196.3,269,201.4,287,202.54c34.7,2.21,71.54-9,97.49-32.74.63-.58,1.26-1.17,1.88-1.77,38.77-5.22,76.34-28.65,115.16-39.42a83.38,83.38,0,0,0-1.23,37.31c6.35,32.62,32.09,61.7,66.24,64.16,15.09,1.08,30.5-4.3,40-16.57,8.72-11.32,11.17-26.34,8.93-40.26-5.48-34-38.08-52-69.78-54.28a125.65,125.65,0,0,0-37.73,3.44,69.88,69.88,0,0,1,2.81-6.62,82.81,82.81,0,0,1,34.64-36.24c16.93-9.22,36.36-11,55.19-8.14,20.09,3.11,39.21,10.67,58.2,17.68,18.64,6.87,37.39,12.87,57,16.08a259.22,259.22,0,0,0,113-6.69c2.94-.84,5.85-1.74,8.75-2.69V91a253.56,253.56,0,0,1-76.49,13,249.68,249.68,0,0,1-59.25-6.15c-19.93-4.55-38.87-12.18-58.07-19.08-19-6.81-38.67-13-59-13.18A84.46,84.46,0,0,0,503,123.64c-25.57,6.78-50.11,19.15-74.62,28.25A206.35,206.35,0,0,1,392.22,162c18.68-20.94,30.68-50.36,23-78.17S380,38.07,351.8,38.43c-29,.37-51.83,21.65-57.63,49.78-2.79,13.58-1.68,28,4.08,40.65,6.52,14.37,19.11,25.23,33.25,31.63a95.93,95.93,0,0,0,47.23,8.32c-21.47,18.3-49.91,28.29-77.89,29.38a132.78,132.78,0,0,1-56.13-10.26c-18.15-7.5-35.46-17.83-54.91-21.7a70.36,70.36,0,0,0-33.48,1.58,254.85,254.85,0,0,0-32.84-4c-22.23-1.45-44.75-1.58-66.5-7A140.17,140.17,0,0,1,7.82,133.54q-4-3-7.82-6.2v5.77a144.78,144.78,0,0,0,46.92,25.52c32.8,10.53,67.73,6.73,101.29,12.07a74.2,74.2,0,0,0-37.62,35.18c-14.49,29.27-3.7,63.52,21.83,82.6C144.77,297.71,160.37,302.84,175.78,301ZM555.24,124.64c17.09,3,34,10.73,45.06,24.59a54.63,54.63,0,0,1,10.42,44.19c-3.39,16.21-15.28,28.46-31.57,31.51-16.75,3.15-34.94-3.11-47.88-13.86-23.81-19.78-33.55-54.17-25-83.71C522.33,123.38,538.58,121.75,555.24,124.64ZM316.78,145.9C292.37,124.74,291.1,86,311.67,61.6s58.51-23.68,81.92-3.68c27.7,23.65,22.17,63.53,3.31,90.87A103.52,103.52,0,0,1,385,163.05C360.7,166.05,336.16,162.7,316.78,145.9ZM163.34,296.5c-33-3.88-59.93-38.28-54.33-71.56,4.16-24.75,23.94-45.26,47.5-52.7q5.06,1,10.05,2.48c29.93,8.63,62.26,31.32,59.61,66.49C223.84,272.34,195,300.23,163.34,296.5Z"/><polygon class="cls-2" points="689.55 87.61 701.5 97.83 701.48 77.4 689.55 87.61"/><polygon class="cls-2" points="701.5 97.83 689.57 108.04 701.52 118.27 701.5 97.83"/><polygon class="cls-3" points="201.6 65.67 213.55 75.89 213.52 55.46 201.6 65.67"/><polygon class="cls-3" points="213.55 75.89 201.62 86.1 213.57 96.33 213.55 75.89"/><path class="cls-2" d="M480.37,65.68c0,3.88,6,3.88,6,0s-6-3.89-6,0Z"/><path class="cls-2" d="M602.76,108.05c0,5.82,9,5.83,9,0s-9-5.83-9,0Z"/><path class="cls-3" d="M280.76,149.72l-9.54-9.54c-1-1-2.62.57-1.59,1.6l9.53,9.54a1.13,1.13,0,0,0,1.6-1.6Z"/><path class="cls-3" d="M276,124.69l-11.92-11.93a1.13,1.13,0,0,0-1.6,1.6l11.93,11.92a1.12,1.12,0,0,0,1.59-1.59Z"/><path class="cls-3" d="M255.13,153.3l-8.94-8.94a1.13,1.13,0,0,0-1.6,1.59l8.94,8.94a1.13,1.13,0,0,0,1.6-1.59Z"/><path class="cls-3" d="M251.56,127.07l-10.14-10.13a1.13,1.13,0,0,0-1.6,1.59L250,128.67a1.13,1.13,0,0,0,1.6-1.6Z"/><path class="cls-3" d="M275.4,89.52,265.26,79.39A1.12,1.12,0,0,0,263.67,81L273.8,91.12a1.13,1.13,0,0,0,1.6-1.6Z"/><path class="cls-3" d="M220.56,147.34,211,137.8a1.13,1.13,0,0,0-1.59,1.6q4.75,4.77,9.53,9.53a1.13,1.13,0,0,0,1.6-1.59Z"/><path class="cls-3" d="M244.4,93.09l-6-6a1.13,1.13,0,1,0-1.6,1.6l6,6a1.13,1.13,0,1,0,1.6-1.6Z"/><path class="cls-3" d="M280.17,177.14l-9.54-9.54a1.13,1.13,0,0,0-1.6,1.6l9.54,9.54a1.13,1.13,0,0,0,1.6-1.6Z"/><path class="cls-3" d="M242,172.37q-3.59-3.57-7.15-7.15a1.13,1.13,0,1,0-1.6,1.6l7.15,7.15a1.14,1.14,0,0,0,1.6,0,1.16,1.16,0,0,0,0-1.6Z"/><path class="cls-3" d="M190.76,147.34,182.41,139a1.13,1.13,0,0,0-1.6,1.6l8.35,8.34a1.13,1.13,0,0,0,1.6-1.59Z"/><path class="cls-3" d="M196.72,118.13,184.8,106.21a1.13,1.13,0,0,0-1.6,1.6q6,6,11.92,11.92a1.13,1.13,0,0,0,1.6-1.6Z"/><path class="cls-3" d="M167.51,122.9l-10.13-10.14a1.13,1.13,0,0,0-1.6,1.6l10.13,10.14a1.13,1.13,0,0,0,1.6-1.6Z"/><path class="cls-3" d="M281.66,60.32,270.33,49a1.13,1.13,0,0,0-1.6,1.6l11.33,11.32a1.13,1.13,0,0,0,1.6-1.6Z"/><path class="cls-3" d="M337.74,118.23l-9.54-9.54a1.13,1.13,0,0,0-1.6,1.6l9.54,9.54a1.13,1.13,0,0,0,1.6-1.6Z"/><path class="cls-3" d="M337.74,86.2l-9.54-9.54a1.13,1.13,0,0,0-1.6,1.6l9.54,9.54a1.13,1.13,0,0,0,1.6-1.6Z"/></g></g></svg>