<svg xmlns="http://www.w3.org/2000/svg" viewBox="0 0 1004.65 879.09"><defs><style>.cls-1{fill:#f7ac41;}.cls-2{fill:#232b38;}</style></defs><g id="Layer_2" data-name="Layer 2"><g id="Layer_1-2" data-name="Layer 1"><path class="cls-1" d="M583.56,290.61C532.67,343.1,512.76,426.36,447.92,460c-70,36.33-165-1.59-229.12,44.47C188,526.62,171.63,564,163,601.08s-11.08,75.46-21.47,112C121,785.37,67.08,846.19,0,879.09H1004.65V331.75c-57.12-38.88-116.57-74.7-183-92.26C739.39,217.72,642.89,229.42,583.56,290.61Z"/><path class="cls-2" d="M45.72,358.24a44.11,44.11,0,0,1,62.38-62.39L96.9,307.06a28.27,28.27,0,0,0-40,40Z"/><polygon class="cls-2" points="681.74 148.3 666.92 136.43 680.28 125.73 666.92 115.04 680.28 104.34 666.92 93.65 680.28 82.96 666.92 72.27 680.28 61.58 666.92 50.89 680.28 40.19 666.92 29.5 681.74 17.64 683.61 19.98 671.71 29.5 685.07 40.19 671.71 50.89 685.07 61.58 671.71 72.27 685.07 82.96 671.71 93.65 685.07 104.34 671.71 115.04 685.07 125.73 671.71 136.43 683.61 145.96 681.74 148.3"/><polygon class="cls-2" points="275.51 330.64 260.69 318.77 274.05 308.07 260.69 297.38 274.05 286.68 260.69 275.99 274.05 265.3 260.69 254.61 274.05 243.92 260.69 233.23 274.05 222.54 260.69 211.84 275.51 199.99 277.38 202.32 265.48 211.84 278.84 222.54 265.48 233.23 278.84 243.92 265.48 254.61 278.84 265.3 265.48 275.99 278.84 286.68 265.48 297.38 278.84 308.07 265.48 318.77 277.38 328.31 275.51 330.64"/><path class="cls-2" d="M815.32,76.24a44.11,44.11,0,0,1,62.38,62.38l-11.2-11.2a28.27,28.27,0,0,0-40-40Z"/><polygon class="cls-2" points="94.61 121.13 78.78 107.59 78.81 134.64 94.61 121.13"/><polygon class="cls-2" points="78.78 107.59 94.58 94.07 78.75 80.53 78.78 107.59"/><path class="cls-2" d="M184,29.51c0-9-14-9-14,0s14,9,14,0Z"/><path class="cls-2" d="M792,4.34c0-5.78-9-5.79-9,0s9,5.78,9,0Z"/></g></g></svg>